<?xml version="1.0" encoding="UTF-8"?>
<svg width="39px" height="35px" viewBox="0 0 39 35" version="1.1" xmlns="http://www.w3.org/2000/svg" xmlns:xlink="http://www.w3.org/1999/xlink">
    <!-- Generator: Sketch 61.2 (89653) - https://sketch.com -->
    <title>restart</title>
    <desc>Created with Sketch.</desc>
    <g id="Page-1" stroke="none" stroke-width="1" fill="none" fill-rule="evenodd">
        <path d="M21.0803201,0.601652676 C30.4847982,0.601652676 38.1090902,8.22069995 38.1090902,17.6198343 C38.1090902,27.0189686 30.4847982,34.6380159 21.0803201,34.6380159 C16.7140227,34.6380159 12.6021085,32.9868466 9.47202348,30.07116 C8.81073744,29.4551695 8.7740182,28.4197322 9.39000875,27.7584462 C10.0059993,27.0971601 11.0414366,27.0604409 11.7027226,27.6764314 C14.2328268,30.0332335 17.5500496,31.3652887 21.0803201,31.3652887 C28.6778248,31.3652887 34.836363,25.210987 34.836363,17.6198343 C34.836363,10.0286816 28.6778248,3.87437991 21.0803201,3.87437991 C14.7863543,3.87437991 9.44820358,8.10968327 7.82812833,13.9181265 L9.55855089,12.2339603 C10.1680186,11.6406381 11.1215675,11.6180554 11.7572135,12.1573262 L11.8725101,12.2650215 C12.4658323,12.8744892 12.488415,13.8280381 11.9491442,14.4636841 L11.8414489,14.5789806 L5.31740404,20.930196 L0.799665702,13.6341955 C0.323889864,12.865833 0.561078221,11.8572596 1.32944073,11.3814838 C2.05511642,10.9321399 2.99505431,11.1187425 3.49805573,11.7881478 L3.58215247,11.9112588 L4.55703147,13.4861663 C6.40870016,6.06311436 13.128188,0.601652676 21.0803201,0.601652676 Z" id="restart" fill="#000000" fill-rule="nonzero"></path>
    </g>
</svg>