<svg xmlns="http://www.w3.org/2000/svg" width="50" height="50" viewBox="0 0 50 50"><g><circle cx="25" cy="25" r="25" style="fill: #15ace5"></circle><path d="M38.89,27.72A14.34,14.34,0,0,0,39.15,25,14.16,14.16,0,0,0,25,10.85a14.34,14.34,0,0,0-2.72.26A8.17,8.17,0,0,0,11.11,22.28,14.34,14.34,0,0,0,10.85,25,14.16,14.16,0,0,0,25,39.15a14.34,14.34,0,0,0,2.72-.26A8.17,8.17,0,0,0,38.89,27.72Zm-13.62,7c-5,0-7.54-1.89-8.32-4.26s.92-3,1.46-3.09a1.85,1.85,0,0,1,2,1.06,4.68,4.68,0,0,0,3.86,3.29c2.42.24,4-.87,4.5-2s-.39-2.76-4.11-3.29-7.59-2.17-7.59-5.9,4.26-5.22,8.32-5.22,6.11,2.3,6.57,3.19c.56,1.12.37,3-1,3.29s-2.12-.43-3.14-2.32-4.78-1.45-6-.34-.92,2.71,4.3,3.72,7.15,2.9,7.15,5.85S30.3,34.72,25.27,34.72Z" style="fill: #fff"></path></g></svg>